{
    "asset": {
        "generator": "COLLADA2GLTF",
        "version": "2.0"
    },
    "scene": 0,
    "scenes": [
        {
            "nodes": [
                0
            ]
        }
    ],
    "nodes": [
        {
            "children": [
                1
            ],
            "matrix": [
                1.0,
                0.0,
                0.0,
                0.0,
                0.0,
                0.0,
                -1.0,
                0.0,
                0.0,
                1.0,
                0.0,
                0.0,
                0.0,
                0.0,
                0.0,
                1.0
            ]
        },
        {
            "children": [
                2
            ],
            "matrix": [
                3.747989892959595,
                0.0,
                0.0,
                0.0,
                0.0,
                3.747989892959595,
                0.0,
                0.0,
                0.0,
                0.0,
                3.747989892959595,
                0.0,
                0.02569233998656273,
                0.6603248119354248,
                4.76523494720459,
                1.0
            ]
        },
        {
            "mesh": 0,
            "matrix": [
                1.0,
                0.0,
                0.0,
                0.0,
                0.0,
                1.0,
                0.0,
                0.0,
                0.0,
                0.0,
                1.0,
                0.0,
                -1.4830360412597657,
                -1.1766799688339234,
                0.1455104947090149,
                1.0
            ]
        }
    ],
    "meshes": [
        {
            "primitives": [
                {
                    "attributes": {
                        "NORMAL": 1,
                        "POSITION": 2,
                        "TEXCOORD_0": 3
                    },
                    "indices": 0,
                    "mode": 4,
                    "material": 0
                },
                {
                    "attributes": {
                        "NORMAL": 5,
                        "POSITION": 6,
                        "TEXCOORD_0": 7
                    },
                    "indices": 4,
                    "mode": 4,
                    "material": 1
                },
                {
                    "attributes": {
                        "NORMAL": 9,
                        "POSITION": 10,
                        "TEXCOORD_0": 11
                    },
                    "indices": 8,
                    "mode": 4,
                    "material": 2
                },
                {
                    "attributes": {
                        "NORMAL": 13,
                        "POSITION": 14,
                        "TEXCOORD_0": 15
                    },
                    "indices": 12,
                    "mode": 4,
                    "material": 3
                }
            ],
            "name": "shell_4-DC"
        }
    ],
    "accessors": [
        {
            "bufferView": 0,
            "byteOffset": 0,
            "componentType": 5123,
            "count": 116457,
            "max": [
                29630
            ],
            "min": [
                0
            ],
            "type": "SCALAR"
        },
        {
            "bufferView": 1,
            "byteOffset": 0,
            "componentType": 5126,
            "count": 29631,
            "max": [
                1.0,
                1.0,
                1.0
            ],
            "min": [
                -1.0,
                -1.0,
                -1.0
            ],
            "type": "VEC3"
        },
        {
            "bufferView": 1,
            "byteOffset": 355572,
            "componentType": 5126,
            "count": 29631,
            "max": [
                3.591439962387085,
                3.1171798706054689,
                0.1729453951120377
            ],
            "min": [
                -0.5937132835388184,
                -1.0997769832611085,
                -1.4104729890823365
            ],
            "type": "VEC3"
        },
        {
            "bufferView": 2,
            "byteOffset": 0,
            "componentType": 5126,
            "count": 29631,
            "max": [
                37.09090805053711,
                10.344430923461914
            ],
            "min": [
                -6.921908855438232,
                -8.355381965637207
            ],
            "type": "VEC2"
        },
        {
            "bufferView": 0,
            "byteOffset": 232914,
            "componentType": 5123,
            "count": 1788,
            "max": [
                615
            ],
            "min": [
                0
            ],
            "type": "SCALAR"
        },
        {
            "bufferView": 1,
            "byteOffset": 711144,
            "componentType": 5126,
            "count": 616,
            "max": [
                0.9185233116149902,
                0.9185231924057008,
                0.999024510383606
            ],
            "min": [
                -0.8203715085983276,
                -0.9185233116149902,
                -0.9999799728393556
            ],
            "type": "VEC3"
        },
        {
            "bufferView": 1,
            "byteOffset": 718536,
            "componentType": 5126,
            "count": 616,
            "max": [
                2.639748096466065,
                2.1637659072875978,
                -0.1674589067697525
            ],
            "min": [
                0.3263247013092041,
                -0.15798279643058778,
                -0.26960471272468569
            ],
            "type": "VEC3"
        },
        {
            "bufferView": 2,
            "byteOffset": 237048,
            "componentType": 5126,
            "count": 616,
            "max": [
                36.68600082397461,
                1.0
            ],
            "min": [
                0.03787839040160179,
                -0.1893939971923828
            ],
            "type": "VEC2"
        },
        {
            "bufferView": 0,
            "byteOffset": 236490,
            "componentType": 5123,
            "count": 12630,
            "max": [
                3350
            ],
            "min": [
                0
            ],
            "type": "SCALAR"
        },
        {
            "bufferView": 1,
            "byteOffset": 725928,
            "componentType": 5126,
            "count": 3351,
            "max": [
                1.0,
                1.0,
                1.0
            ],
            "min": [
                -1.0,
                -1.0,
                -1.0
            ],
            "type": "VEC3"
        },
        {
            "bufferView": 1,
            "byteOffset": 766140,
            "componentType": 5126,
            "count": 3351,
            "max": [
                2.1822071075439459,
                1.4400049448013306,
                -0.9540280103683472
            ],
            "min": [
                0.7838646173477173,
                0.39636701345443728,
                -1.4169210195541382
            ],
            "type": "VEC3"
        },
        {
            "bufferView": 2,
            "byteOffset": 241976,
            "componentType": 5126,
            "count": 3351,
            "max": [
                5.366015911102295,
                7.0720391273498539
            ],
            "min": [
                -5.366015911102295,
                -5.316843986511231
            ],
            "type": "VEC2"
        },
        {
            "bufferView": 0,
            "byteOffset": 261750,
            "componentType": 5123,
            "count": 113013,
            "max": [
                42598
            ],
            "min": [
                0
            ],
            "type": "SCALAR"
        },
        {
            "bufferView": 1,
            "byteOffset": 806352,
            "componentType": 5126,
            "count": 42599,
            "max": [
                1.0,
                1.0,
                1.0
            ],
            "min": [
                -1.0,
                -1.0,
                -1.0
            ],
            "type": "VEC3"
        },
        {
            "bufferView": 1,
            "byteOffset": 1317540,
            "componentType": 5126,
            "count": 42599,
            "max": [
                2.848536968231201,
                2.3729889392852785,
                -0.015402319841086865
            ],
            "min": [
                0.11753489822149276,
                -0.3568645119667053,
                -1.3546580076217652
            ],
            "type": "VEC3"
        },
        {
            "bufferView": 2,
            "byteOffset": 268784,
            "componentType": 5126,
            "count": 42599,
            "max": [
                3.5868189334869386,
                1.221235990524292
            ],
            "min": [
                -0.4708835184574127,
                -0.221235990524292
            ],
            "type": "VEC2"
        }
    ],
    "materials": [
        {
            "pbrMetallicRoughness": {
                "baseColorTexture": {
                    "index": 0
                },
                "metallicFactor": 0.0
            },
            "emissiveFactor": [
                0.0,
                0.0,
                0.0
            ],
            "occlusionTexture": {
                "index": 0
            },
            "name": "TRM_SRF-DC"
        },
        {
            "pbrMetallicRoughness": {
                "baseColorTexture": {
                    "index": 1
                },
                "metallicFactor": 0.0
            },
            "emissiveFactor": [
                0.0,
                0.0,
                0.0
            ],
            "occlusionTexture": {
                "index": 1
            },
            "name": "djt02"
        },
        {
            "pbrMetallicRoughness": {
                "baseColorTexture": {
                    "index": 2
                },
                "metallicFactor": 0.0
            },
            "emissiveFactor": [
                0.0,
                0.0,
                0.0
            ],
            "occlusionTexture": {
                "index": 2
            },
            "name": "Material__39"
        },
        {
            "pbrMetallicRoughness": {
                "baseColorTexture": {
                    "index": 3
                },
                "metallicFactor": 0.0
            },
            "emissiveFactor": [
                0.0,
                0.0,
                0.0
            ],
            "occlusionTexture": {
                "index": 3
            },
            "name": "djt03"
        }
    ],
    "textures": [
        {
            "sampler": 0,
            "source": 0
        },
        {
            "sampler": 0,
            "source": 1
        },
        {
            "sampler": 0,
            "source": 2
        },
        {
            "sampler": 0,
            "source": 3
        }
    ],
    "images": [
        {
            "uri": "0_djt01.jpg"
        },
        {
            "uri": "1_djt02.jpg"
        },
        {
            "uri": "2_djt04.jpg"
        },
        {
            "uri": "3_djt03.jpg"
        }
    ],
    "samplers": [
        {
            "magFilter": 9729,
            "minFilter": 9986,
            "wrapS": 10497,
            "wrapT": 10497
        }
    ],
    "bufferViews": [
        {
            "buffer": 0,
            "byteOffset": 2438304,
            "byteLength": 487776,
            "target": 34963
        },
        {
            "buffer": 0,
            "byteOffset": 0,
            "byteLength": 1828728,
            "byteStride": 12,
            "target": 34962
        },
        {
            "buffer": 0,
            "byteOffset": 1828728,
            "byteLength": 609576,
            "byteStride": 8,
            "target": 34962
        }
    ],
    "buffers": [
        {
            "byteLength": 2926080,
            "uri": "data:application/octet-stream;base64,"
        }
    ]
}
