{
    "asset": {
        "generator": "COLLADA2GLTF",
        "version": "2.0"
    },
    "scene": 0,
    "scenes": [
        {
            "nodes": [
                0
            ]
        }
    ],
    "nodes": [
        {
            "children": [
                1
            ],
            "matrix": [
                1.0,
                0.0,
                0.0,
                0.0,
                0.0,
                0.0,
                -1.0,
                0.0,
                0.0,
                1.0,
                0.0,
                0.0,
                0.0,
                0.0,
                0.0,
                1.0
            ]
        },
        {
            "children": [
                2
            ],
            "matrix": [
                -1.0,
                -7.5561437995475e-8,
                -7.543442848145787e-8,
                0.0,
                -7.543444979773996e-8,
                2.528810796320613e-7,
                1.0,
                0.0,
                -7.556141667919293e-8,
                1.0,
                -2.528810796320613e-7,
                0.0,
                0.0,
                0.0,
                954.99365234375,
                1.0
            ]
        },
        {
            "mesh": 0,
            "matrix": [
                1.0,
                0.0,
                0.0,
                0.0,
                0.0,
                1.0,
                0.0,
                0.0,
                0.0,
                0.0,
                1.0,
                0.0,
                -0.0004882809880655259,
                -655.7830200195313,
                3527.826171875,
                1.0
            ]
        }
    ],
    "meshes": [
        {
            "primitives": [
                {
                    "attributes": {
                        "NORMAL": 1,
                        "POSITION": 2
                    },
                    "indices": 0,
                    "mode": 4,
                    "material": 0
                }
            ],
            "name": "HXJ"
        }
    ],
    "accessors": [
        {
            "bufferView": 0,
            "byteOffset": 0,
            "componentType": 5123,
            "count": 129636,
            "max": [
                37839
            ],
            "min": [
                0
            ],
            "type": "SCALAR"
        },
        {
            "bufferView": 1,
            "byteOffset": 0,
            "componentType": 5126,
            "count": 37840,
            "max": [
                1.0,
                1.0,
                1.0
            ],
            "min": [
                -1.0,
                -1.0,
                -1.0
            ],
            "type": "VEC3"
        },
        {
            "bufferView": 1,
            "byteOffset": 454080,
            "componentType": 5126,
            "count": 37840,
            "max": [
                7456.88916015625,
                1595.72607421875,
                -56.8831787109375
            ],
            "min": [
                -7456.88818359375,
                -284.1598815917969,
                -6998.76953125
            ],
            "type": "VEC3"
        }
    ],
    "materials": [
        {
            "pbrMetallicRoughness": {
                "baseColorFactor": [
                    0.7921569347381592,
                    0.8196079134941101,
                    0.9333333373069764,
                    1.0
                ],
                "metallicFactor": 0.0
            },
            "name": "ColorEffectR202G209B238"
        }
    ],
    "bufferViews": [
        {
            "buffer": 0,
            "byteOffset": 908160,
            "byteLength": 259272,
            "target": 34963
        },
        {
            "buffer": 0,
            "byteOffset": 0,
            "byteLength": 908160,
            "byteStride": 12,
            "target": 34962
        }
    ],
    "buffers": [
        {
            "byteLength": 1167432,
            "uri": "data:application/octet-stream;base64,"
        }
    ]
}
